# File created by Blade
# Date/Time:  Thu Jan 22 15:49:58 2015
# Frame Rate: 120.000 fps
#------------------------------------------------------
:FULLY-SPECIFIED
:DEGREES
1165
root 3.168489 37.149173 4.685291 -3.591715 -4.323708 2.000744
RightUpLeg 11.099127 -6.032378 -5.080705
RightLeg -5.254014 -0.000000 0.000000
RightFoot -10.301705 -11.850533 16.453844
RightToeBase 14.006015 -0.000000 -0.000000
LeftUpLeg 9.972031 6.607808 2.401384
LeftLeg -2.326863 -0.000000 0.000000
LeftFoot -7.317798 8.267355 -16.834411
LeftToeBase 8.579848 -0.000000 -0.000000
Spine 4.585713 -4.435129 -3.614394
RightShoulder -6.355207 -15.308910 -19.615541
RightArm 16.433169 50.817047 51.757052
RightForeArm 42.034577 0.000000 103.996585
RightHand 14.058937 -0.000000 -18.490891
RightHandThumb1 -24.326973 -0.000000 -32.862282
LeftShoulder -27.803177 32.795838 16.491267
LeftArm 59.587231 -62.794430 -72.150264
LeftForeArm -4.740366 -0.000000 76.851054
LeftHand -21.424881 -0.000000 4.595667
LeftHandThumb1 -26.253704 0.000000 33.147579
Head 21.388705 21.934855 0.476674
1166
root 3.182509 37.146365 4.678319 -3.600432 -4.171700 2.056366
RightUpLeg 11.127662 -6.152084 -5.167955
RightLeg -5.266299 -0.000000 0.000000
RightFoot -10.352571 -11.856556 16.470141
RightToeBase 14.026869 -0.000000 -0.000000
LeftUpLeg 9.955621 6.544333 2.325662
LeftLeg -2.353563 -0.000000 0.000000
LeftFoot -7.268041 8.201266 -16.796739
LeftToeBase 8.548910 -0.000000 -0.000000
Spine 4.734856 -4.527053 -3.561611
RightShoulder -6.533197 -15.911291 -19.154080
RightArm 15.825559 49.298927 51.283619
RightForeArm 40.706271 -0.000000 101.518431
RightHand 13.479911 -0.000000 -18.207847
RightHandThumb1 -24.326973 -0.000000 -32.862282
LeftShoulder -28.005449 33.212267 15.658873
LeftArm 57.497768 -61.529273 -70.418024
LeftForeArm -3.229619 0.000000 75.059401
LeftHand -21.855748 -0.000000 4.359216
LeftHandThumb1 -26.253704 0.000000 33.147579
Head 20.631528 21.995284 0.266920
1167
root 3.194539 37.144289 4.664967 -3.576844 -4.029911 2.095968
RightUpLeg 11.105107 -6.238303 -5.217970
RightLeg -5.266043 -0.000000 0.000000
RightFoot -10.414969 -11.925721 16.500338
RightToeBase 14.115343 -0.000000 -0.000000
LeftUpLeg 9.891379 6.488527 2.266499
LeftLeg -2.362981 -0.000000 0.000000
LeftFoot -7.236528 8.135710 -16.780108
LeftToeBase 8.624649 -0.000000 -0.000000
Spine 4.843222 -4.662589 -3.492421
RightShoulder -6.571261 -16.340245 -18.810445
RightArm 15.144682 47.886648 50.845649
RightForeArm 38.981205 0.000000 99.028714
RightHand 12.599522 -0.000000 -18.053682
RightHandThumb1 -24.326973 -0.000000 -32.862282
LeftShoulder -28.231031 33.630944 14.765991
LeftArm 55.540478 -60.289663 -68.727825
LeftForeArm -1.616807 -0.000000 73.180451
LeftHand -22.033392 0.000000 4.066653
LeftHandThumb1 -26.253704 0.000000 33.147579
Head 19.900553 22.059555 0.130386
1168
root 3.209000 37.142179 4.654344 -3.554060 -3.895391 2.146448
RightUpLeg 11.075144 -6.368550 -5.286118
RightLeg -5.247436 -0.000000 0.000000
RightFoot -10.480787 -11.974197 16.495128
RightToeBase 14.155619 -0.000000 -0.000000
LeftUpLeg 9.841019 6.424630 2.189776
LeftLeg -2.384706 -0.000000 0.000000
LeftFoot -7.193244 8.072231 -16.754048
LeftToeBase 8.671580 -0.000000 -0.000000
Spine 4.964161 -4.798425 -3.451919
RightShoulder -6.606840 -16.682388 -18.484303
RightArm 14.502122 46.521868 50.394629
RightForeArm 37.223629 -0.000000 96.410041
RightHand 11.796217 -0.000000 -16.992870
RightHandThumb1 -24.326973 -0.000000 -32.862282
LeftShoulder -28.414833 33.898474 14.005837
LeftArm 53.653243 -58.975460 -67.154837
LeftForeArm 0.013904 0.000000 71.216554
LeftHand -22.103188 -0.000000 3.680969
LeftHandThumb1 -26.253704 0.000000 33.147579
Head 19.166900 22.109872 -0.030098
1169
root 3.224953 37.138982 4.644645 -3.519424 -3.789419 2.194681
RightUpLeg 11.039040 -6.484678 -5.343881
RightLeg -5.254127 -0.000000 0.000000
RightFoot -10.555498 -12.053564 16.510011
RightToeBase 14.250772 -0.000000 -0.000000
LeftUpLeg 9.793691 6.462227 2.126934
LeftLeg -2.431625 -0.000000 0.000000
LeftFoot -7.122973 7.965089 -16.693156
LeftToeBase 8.627015 -0.000000 -0.000000
Spine 5.069827 -4.892251 -3.386481
RightShoulder -6.689004 -17.110891 -18.183536
RightArm 14.120313 45.251724 50.081884
RightForeArm 35.518084 -0.000000 93.702919
RightHand 11.332284 -0.000000 -16.144379
RightHandThumb1 -24.326973 -0.000000 -32.862282
LeftShoulder -28.545074 34.158111 13.229900
LeftArm 51.988390 -57.722657 -65.755976
LeftForeArm 1.699505 -0.000000 69.175006
LeftHand -21.996969 -0.000000 3.229077
LeftHandThumb1 -26.253704 0.000000 33.147579
Head 18.375939 22.076052 -0.192975
1170
root 3.239003 37.136864 4.633967 -3.481834 -3.703905 2.244348
RightUpLeg 10.996884 -6.534807 -5.411765
RightLeg -5.251696 -0.000000 0.000000
RightFoot -10.609743 -12.070774 16.531540
RightToeBase 14.299537 -0.000000 -0.000000
LeftUpLeg 9.742994 6.407682 2.052815
LeftLeg -2.470161 -0.000000 0.000000
LeftFoot -7.075790 7.924463 -16.694823
LeftToeBase 8.609070 -0.000000 -0.000000
Spine 5.162398 -4.995806 -3.350281
RightShoulder -6.733508 -17.596505 -17.896608
RightArm 13.909959 43.998485 49.819453
RightForeArm 34.066195 0.000000 90.879753
RightHand 10.603587 -0.000000 -15.233198
RightHandThumb1 -24.326973 -0.000000 -32.862282
LeftShoulder -28.704153 34.496168 12.461070
LeftArm 50.766116 -56.530453 -64.794041
LeftForeArm 3.805840 0.000000 67.139187
LeftHand -22.345418 0.000000 2.684611
LeftHandThumb1 -26.253704 0.000000 33.147579
Head 17.668790 22.047451 -0.321474
